<?xml version="1.0" standalone="no"?>
<!DOCTYPE svg PUBLIC "-//W3C//DTD SVG 20010904//EN"
 "http://www.w3.org/TR/2001/REC-SVG-20010904/DTD/svg10.dtd">
<svg version="1.0" xmlns="http://www.w3.org/2000/svg"
 width="260.000000pt" height="260.000000pt" viewBox="0 0 260.000000 260.000000"
 preserveAspectRatio="xMidYMid meet">

<g transform="translate(0.000000,260.000000) scale(0.100000,-0.100000)"
fill="#000000" stroke="none">
<path d="M1155 2553 c-132 -17 -307 -68 -409 -120 -359 -182 -621 -538 -683
-928 -23 -145 -13 -377 20 -505 84 -317 277 -585 544 -756 118 -75 230 -123
393 -166 112 -30 367 -36 497 -13 254 46 471 156 654 332 182 176 289 358 357
612 23 87 25 114 26 286 0 161 -3 204 -22 283 -117 504 -522 885 -1025 967
-83 14 -276 18 -352 8z m149 -158 l-42 -45 54 -57 c57 -59 58 -73 2 -73 -21 0
-34 9 -54 40 -42 63 -53 51 -28 -32 5 -15 -1 -18 -38 -18 l-43 0 -1 95 c-1 60
-5 100 -14 110 -11 13 -7 15 34 15 l46 0 0 -42 0 -43 33 40 c17 22 31 43 30
47 -2 4 12 8 30 8 l33 0 -42 -45z m-249 -25 c24 -46 18 -56 -14 -26 -53 50
-101 17 -87 -59 19 -98 126 -119 126 -24 0 28 12 17 26 -24 10 -30 9 -32 -23
-49 -41 -22 -111 -23 -141 -2 -53 37 -68 124 -29 169 19 22 50 33 119 44 4 1
14 -12 23 -29z m663 0 c23 -10 42 -21 42 -23 0 -2 -5 -18 -11 -36 -14 -39 -29
-40 -29 -1 0 41 -38 60 -73 37 -28 -18 -57 -74 -57 -109 0 -50 48 -63 94 -27
30 24 31 21 12 -25 -13 -32 -16 -33 -53 -27 -104 20 -143 94 -90 172 41 61 91
73 165 39z m166 -71 c35 -20 35 -22 17 -37 -19 -18 -111 -137 -111 -145 0 -3
13 -10 29 -17 23 -9 34 -9 53 0 22 12 22 11 -3 -15 l-27 -27 -68 41 c-38 22
-64 41 -58 41 14 0 127 149 127 167 0 17 -1 17 41 -8z m-1039 -93 c40 -55 41
-87 3 -119 -49 -41 -106 -34 -152 21 -17 20 -45 51 -61 68 l-30 31 37 22 c27
15 38 18 38 9 0 -22 100 -138 119 -138 10 0 26 9 36 20 18 20 17 22 -20 76
-21 30 -49 63 -61 73 l-23 18 22 10 c18 8 25 6 39 -16 10 -14 34 -48 53 -75z
m1255 -68 c0 -4 -6 -8 -12 -8 -7 0 -39 -21 -71 -46 -48 -38 -58 -51 -55 -73 5
-44 49 -41 114 10 30 23 59 49 64 58 8 14 12 13 32 -6 18 -18 19 -23 6 -23 -8
0 -44 -22 -78 -50 -51 -41 -70 -50 -102 -50 -85 0 -120 93 -56 147 18 16 48
44 68 63 l35 36 28 -25 c15 -14 27 -28 27 -33z m-1498 -35 c10 -9 18 -29 18
-44 0 -24 6 -30 33 -37 18 -5 39 -5 49 -1 25 13 32 -8 13 -38 -18 -26 -20 -27
-109 -7 -38 9 -31 -13 12 -36 l31 -17 -29 -28 c-17 -16 -30 -24 -30 -19 0 10
-140 115 -166 124 -11 4 -6 15 18 44 58 70 121 94 160 59z m1673 -173 c14 -27
25 -58 25 -68 0 -27 -25 -45 -55 -40 -20 4 -25 1 -25 -15 0 -57 -71 -75 -119
-29 -30 28 -94 131 -73 118 13 -8 195 69 200 85 6 16 22 -1 47 -51z m-1860
-11 c5 -5 0 -9 -13 -9 -12 0 -26 -8 -31 -19 -9 -16 -1 -22 77 -52 48 -19 93
-33 100 -33 15 2 15 2 -5 -41 -14 -30 -19 -33 -32 -21 -14 11 -161 76 -174 76
-12 0 -16 -33 -7 -51 10 -17 9 -18 -15 -7 -14 6 -25 15 -25 19 0 5 17 42 37
84 32 64 40 74 58 69 11 -4 24 -10 30 -15z m1110 -74 c22 -21 25 -33 25 -100
0 -67 -3 -79 -25 -100 -13 -14 -31 -25 -40 -25 -8 0 -15 -4 -15 -10 0 -5 7
-10 15 -10 9 0 27 -11 40 -25 22 -21 25 -33 25 -98 0 -60 -4 -77 -20 -95 -30
-31 -47 -34 -249 -30 -178 3 -183 4 -202 27 -15 18 -19 39 -19 101 0 73 2 80
26 99 15 12 33 21 40 21 8 0 14 5 14 10 0 6 -7 10 -15 10 -9 0 -27 11 -40 25
-22 21 -25 33 -25 100 0 67 3 79 25 100 24 25 25 25 220 25 195 0 196 0 220
-25z m-411 -625 c161 -272 191 -317 201 -302 6 9 92 153 191 319 l179 303 138
0 c76 0 137 -4 135 -9 -1 -4 -106 -184 -233 -399 l-230 -392 -190 0 -190 0
-233 394 c-127 217 -232 397 -232 400 0 3 62 6 138 6 l137 0 189 -320z m-336
-615 c70 -49 178 -101 279 -132 80 -24 103 -27 243 -27 128 0 169 4 235 22 93
26 229 88 297 137 26 19 50 35 52 35 5 0 166 -207 166 -214 0 -11 -131 -97
-207 -135 -342 -171 -734 -171 -1077 0 -94 47 -201 120 -201 137 0 12 152 212
160 212 3 0 27 -16 53 -35z"/>
<path d="M502 2064 c-29 -20 -28 -25 14 -54 35 -23 37 -24 50 -5 8 10 14 24
14 31 0 12 -37 44 -50 44 -3 0 -16 -7 -28 -16z"/>
<path d="M2222 1907 c-29 -13 -23 -31 11 -35 21 -3 27 1 27 17 0 26 -10 31
-38 18z"/>
<path d="M2120 1862 c-19 -9 -37 -18 -39 -19 -2 -2 4 -12 14 -23 34 -38 90
-17 83 31 -4 29 -15 31 -58 11z"/>
<path d="M1200 1705 l0 -36 103 3 102 3 3 33 3 32 -105 0 -106 0 0 -35z"/>
<path d="M1200 1515 l0 -35 105 0 105 0 0 35 0 35 -105 0 -105 0 0 -35z"/>
<path d="M1814 583 c-148 -96 -293 -143 -469 -150 -70 -3 -145 -1 -180 6 -50
9 -60 9 -68 -4 -4 -8 -29 -20 -54 -26 -55 -14 -46 -21 62 -44 90 -19 290 -22
370 -6 27 5 51 8 52 7 1 -1 5 -20 9 -43 l6 -42 -38 -8 c-22 -4 -115 -8 -209
-8 -142 1 -183 4 -249 22 l-79 22 44 -47 44 -46 -63 53 c-82 70 -91 60 -11
-12 51 -46 72 -57 118 -66 101 -19 224 -23 321 -12 147 18 142 16 134 66 l-6
42 38 8 c89 16 305 120 381 182 l22 18 -53 67 -52 66 -70 -45z"/>
<path d="M720 612 c0 -18 53 -122 62 -122 5 0 -6 28 -23 63 -35 69 -39 75 -39
59z"/>
<path d="M692 588 c-21 -21 -11 -38 40 -68 16 -10 16 -8 2 27 -20 49 -27 56
-42 41z"/>
<path d="M794 543 c42 -80 42 -80 61 -44 9 18 15 34 13 36 -10 9 -89 55 -93
55 -3 0 6 -21 19 -47z"/>
<path d="M643 523 c-8 -19 22 -45 113 -98 l63 -37 -22 -44 c-18 -39 -19 -46
-7 -54 25 -16 30 -12 51 35 l20 45 37 -16 c20 -8 67 -24 104 -34 l66 -18 4 23
c5 22 -2 26 -76 49 -111 35 -114 37 -98 78 19 47 19 62 1 66 -10 2 -22 -11
-34 -38 -10 -22 -24 -40 -30 -40 -7 0 -47 23 -89 50 -84 55 -94 58 -103 33z"/>
<path d="M927 483 c-2 -10 -8 -25 -11 -34 -6 -15 -2 -16 41 -8 102 19 103 19
48 39 -64 24 -72 24 -78 3z"/>
<path d="M600 471 c-8 -16 -6 -21 8 -24 31 -9 92 -18 92 -14 0 6 -74 57 -83
57 -3 0 -11 -9 -17 -19z"/>
<path d="M1025 445 c-22 -8 -52 -14 -67 -14 -16 -1 -28 -6 -28 -12 0 -6 8 -8
18 -5 9 2 43 10 75 17 31 7 57 16 57 21 0 10 -5 9 -55 -7z"/>
<path d="M592 410 c9 -6 50 -15 90 -20 l73 -9 -62 3 c-34 1 -60 -1 -57 -5 5
-9 108 -69 117 -69 4 0 13 13 22 30 14 28 14 30 -2 30 -15 0 -16 2 -3 10 19
12 6 16 -70 25 -30 3 -71 8 -90 11 -28 4 -31 3 -18 -6z"/>
<path d="M851 298 c-6 -17 -10 -32 -9 -33 9 -5 121 -45 128 -45 5 0 -15 25
-44 55 -29 30 -55 55 -58 55 -3 0 -11 -14 -17 -32z"/>
</g>
</svg>
